<?xml version="1.0" encoding="UTF-8"?>
<!DOCTYPE svg PUBLIC "-//W3C//DTD SVG 1.1//EN" "http://www.w3.org/Graphics/SVG/1.1/DTD/svg11.dtd">
<!-- Creator: CorelDRAW -->
<svg xmlns="http://www.w3.org/2000/svg" xml:space="preserve" width="550px" height="210px" style="shape-rendering:geometricPrecision; text-rendering:geometricPrecision; image-rendering:optimizeQuality; fill-rule:evenodd; clip-rule:evenodd"
viewBox="0 0 550 210">
 <defs>
  <style type="text/css">
   <![CDATA[
    .fil1 {fill:#EC0928}
    .fil0 {fill:#004890;fill-rule:nonzero}
   ]]>
  </style>
 </defs>
 <g id="Capa_x0020_1">
  <metadata id="CorelCorpID_0Corel-Layer"/>
  <g id="_162806024">
   <path id="_162806288" class="fil0" d="M134.138 9.48663l34.0914 0 0 38.615 37.2768 0 0 -38.615 32.8784 0c-18.1654,11.3799 -30.2481,31.5733 -30.2481,54.5835 0,23.5855 12.6921,44.2052 31.6158,55.4139l0 0.344882 -34.2461 0 0 -44.6245 -37.2768 0 0 44.6245 -34.0914 0 0 -110.342zm172.484 0l71.0907 0c10.6347,0 18.7996,2.65394 24.4819,7.91458 5.69646,5.27127 8.55592,11.791 8.55592,19.5496 0,6.5256 -2.03032,12.1264 -6.08859,16.8012 -2.72363,3.10867 -6.68032,5.57599 -11.8961,7.37363 7.9134,1.9004 13.7457,5.18977 17.4969,9.81497 3.72402,4.65001 5.59961,10.4799 5.59961,17.4945 0,5.72954 -1.33583,10.8673 -3.9815,15.4394 -2.67166,4.57442 -6.2941,8.1697 -10.9193,10.8425 -2.85119,1.6441 -7.1693,2.84764 -12.9484,3.59646 -7.68072,0.996852 -12.7689,1.51536 -15.2858,1.51536l-68.0576 0c19.2473,-11.1295 32.204,-31.9311 32.204,-55.7587 0,-23.0103 -12.0874,-43.2036 -30.2516,-54.5835zm41.6469 43.2898l14.824 0c5.31851,0 9.01773,-0.924804 11.1248,-2.74961 2.08111,-1.84843 3.10867,-4.49528 3.10867,-7.9382 0,-3.21024 -1.02756,-5.72835 -3.10867,-7.52836 -2.10709,-1.82244 -5.72954,-2.72126 -10.8921,-2.72126l-15.0567 0 0 20.9374zm0 43.3406l17.3941 0c5.88308,0 10.0193,-1.02874 12.4087,-3.10985 2.41418,-2.07992 3.62245,-4.88032 3.62245,-8.40001 0,-3.26339 -1.18229,-5.8819 -3.57166,-7.86143 -2.38819,-1.97835 -6.5504,-2.97993 -12.5374,-2.97993l-17.3162 0 0 22.3512z"/>
   <g>
    <rect id="_162806216" class="fil1" x="253.757" y="9.70216" width="37.4962" height="108.739"/>
    <rect id="_162806144" class="fil1" transform="matrix(3.28142E-014 -1.23899 1.15492 3.05875E-014 218.135 82.8204)" width="30.2634" height="94.1529"/>
   </g>
   <path id="_162806048" class="fil0" d="M21.2044 146.772l0 15.7713 12.5953 0 0 -15.7713 10.787 0 0 41.3044 -10.787 0 0 -17.2595 -12.5953 0 0 17.2595 -10.787 0 0 -41.3044 10.787 0zm46.6477 17.1992c-1.90394,0 -3.4689,0.785434 -4.69253,2.35158 -1.22599,1.56733 -1.83662,3.7004 -1.83662,6.39804 0,2.69764 0.621261,4.82009 1.86496,6.36733 1.24488,1.54843 2.79922,2.32205 4.66418,2.32205 1.94528,0 3.51851,-0.764174 4.72324,-2.29134 1.20591,-1.52835 1.80945,-3.66024 1.80945,-6.39804 0,-2.73662 -0.603544,-4.88032 -1.80945,-6.42757 -1.20473,-1.54725 -2.77796,-2.32205 -4.72324,-2.32205zm0 -7.32048c2.72126,0 5.15198,0.367323 7.28977,1.10197 2.13898,0.733466 3.94489,1.79528 5.42245,3.18308 1.47638,1.39016 2.60433,3.08504 3.38268,5.08938 0.777166,2.00315 1.16457,4.25552 1.16457,6.75592 0,2.49922 -0.387402,4.75158 -1.16457,6.75473 -0.778348,2.00315 -1.9063,3.68977 -3.38268,5.05867 -1.47756,1.3689 -3.28347,2.42008 -5.42245,3.15473 -2.1378,0.733466 -4.56851,1.10079 -7.28977,1.10079 -5.44135,0 -9.66852,-1.40906 -12.6803,-4.22599 -3.01536,-2.81693 -4.52009,-6.76418 -4.52009,-11.8429 0,-2.5004 0.388583,-4.75276 1.16575,-6.75592 0.778348,-2.00433 1.9063,-3.69922 3.38268,-5.08938 1.47638,-1.3878 3.27402,-2.44961 5.3941,-3.18308 2.11772,-0.734647 4.5378,-1.10197 7.25788,-1.10197zm44.2583 8.9882c-2.83701,-1.62756 -5.55828,-2.44016 -8.16379,-2.44016 -1.2815,0 -2.25473,0.237402 -2.91378,0.714568 -0.662599,0.474804 -0.993309,1.11024 -0.993309,1.90394 0,0.516142 0.146457,0.922442 0.439371,1.22008 0.290552,0.296457 0.707481,0.555119 1.25433,0.773623 0.543308,0.217323 1.1941,0.437008 1.95236,0.654332 0.758269,0.217323 1.62166,0.466536 2.59252,0.744096 1.47874,0.437008 2.75197,0.922442 3.82205,1.45866 1.0689,0.53504 1.95236,1.15984 2.65158,1.87441 0.700395,0.713387 1.22362,1.5567 1.57441,2.52874 0.349607,0.97323 0.52441,2.113 0.52441,3.42284 0,3.21378 -1.20355,5.75316 -3.61418,7.61812 -2.40945,1.86496 -5.83229,2.79685 -10.2626,2.79685 -3.69331,0 -7.2697,-0.575198 -10.7291,-1.72559l0.642521 -7.8567c2.91378,1.54725 5.96576,2.32087 9.15238,2.32087 3.07205,0 4.60749,-0.832678 4.60749,-2.49922 0,-0.555119 -0.145276,-1.00276 -0.43819,-1.33819 -0.290552,-0.337796 -0.707481,-0.635434 -1.25315,-0.892915 -0.544489,-0.258662 -1.21536,-0.506694 -2.01142,-0.744096 -0.796064,-0.238583 -1.70079,-0.516142 -2.71063,-0.833859 -1.39961,-0.475985 -2.62323,-0.970868 -3.67441,-1.48701 -1.04882,-0.516142 -1.92402,-1.10197 -2.62323,-1.7563 -0.700395,-0.655513 -1.22362,-1.41851 -1.57441,-2.29134 -0.349607,-0.872836 -0.525591,-1.88504 -0.525591,-3.03544 0,-3.13583 1.20473,-5.60552 3.61536,-7.41025 2.41063,-1.80473 5.90788,-2.70827 10.4953,-2.70827 2.9563,0 6.00591,0.536221 9.15474,1.60748l-0.990946 7.38072zm18.5433 34.8756l-10.2626 0 0 -43.03 9.21261 0 0 5.83229c1.16693,-2.14252 2.67284,-3.7878 4.52009,-4.93938 1.84488,-1.1504 3.93426,-1.72677 6.26694,-1.72677 1.98425,0 3.80079,0.367323 5.45198,1.10197 1.65236,0.733466 3.07205,1.79528 4.2567,3.18308 1.18583,1.39016 2.10827,3.06615 2.77087,5.03032 0.659056,1.96299 0.989765,4.1752 0.989765,6.63544 0,2.46024 -0.337796,4.69253 -1.02047,6.69568 -0.680316,2.00433 -1.61339,3.7193 -2.79804,5.14725 -1.18583,1.42914 -2.59489,2.52992 -4.22717,3.30473 -1.63347,0.772442 -3.40158,1.15984 -5.30788,1.15984 -4.15867,0 -7.44332,-1.7067 -9.85277,-5.11772l0 16.7233zm6.4134 -36.0071c-1.98307,0 -3.54686,0.724017 -4.69371,2.17205 -1.14685,1.44803 -1.71969,3.48308 -1.71969,6.10158 0,2.57835 0.572835,4.5815 1.71969,6.01064 1.14685,1.42795 2.65276,2.14252 4.52009,2.14252 1.90394,0 3.43938,-0.733466 4.60512,-2.20276 1.16693,-1.46811 1.7504,-3.5504 1.7504,-6.24804 0,-2.46024 -0.564568,-4.40552 -1.69134,-5.83347 -1.12795,-1.42795 -2.62441,-2.14252 -4.49056,-2.14252zm33.4713 -7.02284l0 30.5918 -10.2638 0 0 -30.5918 10.2638 0zm0 -14.0457l0 8.51104 -10.2638 0 0 -8.51104 10.2638 0zm20.9327 14.0457l7.34765 0 0 7.55788 -7.34765 0 0 10.5354c0,2.26063 0.350788,3.85867 1.05,4.79056 0.700395,0.933072 1.9441,1.39843 3.72993,1.39843 0.311811,0 0.673229,-0.0389764 1.07953,-0.119292 0.409843,-0.079134 0.904726,-0.197244 1.48819,-0.356693l0.174803 6.8445c-2.17796,0.514961 -4.25788,0.773623 -6.23977,0.773623 -2.05985,0 -3.81851,-0.258662 -5.27599,-0.773623 -1.45866,-0.516142 -2.65394,-1.29921 -3.58701,-2.3504 -0.933072,-1.05236 -1.61339,-2.40118 -2.04095,-4.04646 -0.42756,-1.64764 -0.64134,-3.60119 -0.64134,-5.86418l0 -10.8319 -5.77206 0 0 -7.55788 6.35552 0 0 -7.08308 9.67915 -3.33189 0 10.415zm29.5642 16.6642c-2.91733,0 -5.06457,0.317717 -6.4441,0.953151 -1.37953,0.634253 -2.06929,1.72559 -2.06929,3.27284 0,1.03228 0.350788,1.88504 1.04882,2.55945 0.700395,0.67441 1.65118,1.01103 2.85709,1.01103 1.82717,0 3.34252,-0.614174 4.54843,-1.8437 1.20591,-1.23071 1.80827,-2.91733 1.80827,-5.05985l0 -0.892915 -1.74922 0zm11.4284 13.9276l-8.92206 -0.0106299 -0.232677 -4.7504c-1.24252,1.82481 -2.73189,3.13465 -4.46103,3.92835 -1.72914,0.793702 -3.77953,1.18937 -6.15119,1.18937 -3.07205,0 -5.5004,-0.882285 -7.28977,-2.64804 -1.78819,-1.76575 -2.68111,-4.11733 -2.68111,-7.05355 0,-3.45119 1.31221,-5.98111 3.93544,-7.58741 2.62441,-1.60748 6.65788,-2.41063 12.0992,-2.41063l4.02402 0 0 -0.41693c0,-1.66654 -0.622442,-2.94685 -1.86733,-3.83977 -1.24252,-0.891734 -3.06969,-1.33819 -5.48032,-1.33819 -2.41063,0 -5.36339,0.832678 -8.86182,2.5004l-0.175985 -6.90355c1.7504,-0.754725 3.59528,-1.3004 5.53938,-1.63701 1.9441,-0.337796 4.04292,-0.505513 6.29765,-0.505513 4.97599,0 8.59135,1.24961 10.8461,3.74882 2.25355,2.5004 3.3815,6.40749 3.3815,11.7248l0 16.0099zm17.6103 -44.6375l0 44.6375 -10.2638 0 0 -44.6375 10.2638 0zm36.3851 37.0193l4.2567 0c4.47048,0 6.70513,-1.64764 6.70513,-4.94056 0,-3.17363 -2.07874,-4.76103 -6.23859,-4.76103l-4.72324 0 0 9.70159zm0 -17.0221l3.26457 0c4.54843,0 6.82324,-1.58622 6.82324,-4.76103 0,-2.9752 -2.1,-4.46339 -6.29883,-4.46339l-3.78898 0 0 9.22442zm6.00591 -16.6642c9.83505,0 14.752,3.57048 14.752,10.7126 0,4.84135 -2.52756,7.95592 -7.58033,9.34371 2.79922,0.555119 4.93701,1.67599 6.41458,3.3626 1.47756,1.68662 2.21457,3.83977 2.21457,6.45828 0,3.96851 -1.37008,6.86458 -4.10906,8.6882 -2.74252,1.82599 -6.91182,2.73898 -12.5091,2.73898l-15.7429 0 0 -41.3044 16.5603 0zm43.0323 19.2839c-0.505513,-0.199607 -1.02047,-0.337796 -1.54488,-0.41693 -0.525591,-0.0803151 -1.07953,-0.119292 -1.66299,-0.119292 -4.93583,0 -7.40434,3.17363 -7.40434,9.52206l0 13.0347 -10.2614 0 0 -30.5918 9.15238 0 0 5.83229c2.06221,-4.44331 5.113,-6.66615 9.15592,-6.66615 0.42756,0 0.904726,0.0401575 1.42914,0.120473 0.52441,0.079134 1.07717,0.157087 1.66063,0.237402l-0.52441 9.04726zm14.8689 -8.57127l0 30.5918 -10.2638 0 0 -30.5918 10.2638 0zm0 -14.0457l0 8.51104 -10.2638 0 0 -8.51104 10.2638 0zm20.9339 14.0457l7.34647 0 0 7.55788 -7.34647 0 0 10.5354c0,2.26063 0.348426,3.85867 1.04882,4.79056 0.700395,0.933072 1.94292,1.39843 3.73111,1.39843 0.311811,0 0.672048,-0.0389764 1.07953,-0.119292 0.408662,-0.079134 0.904726,-0.197244 1.48701,-0.356693l0.175985 6.8445c-2.17796,0.514961 -4.25788,0.773623 -6.23977,0.773623 -2.06103,0 -3.82087,-0.258662 -5.27717,-0.773623 -1.45748,-0.516142 -2.65276,-1.29921 -3.58701,-2.3504 -0.931891,-1.05236 -1.61221,-2.40118 -2.03977,-4.04646 -0.42756,-1.64764 -0.64134,-3.60119 -0.64134,-5.86418l0 -10.8319 -5.77206 0 0 -7.55788 6.35434 0 0 -7.08308 9.68033 -3.33189 0 10.415zm29.5642 16.6642c-2.91733,0 -5.06457,0.317717 -6.4441,0.953151 -1.38071,0.634253 -2.06929,1.72559 -2.06929,3.27284 0,1.03228 0.348426,1.88504 1.04882,2.55945 0.700395,0.67441 1.65118,1.01103 2.85709,1.01103 1.82717,0 3.34252,-0.614174 4.54843,-1.8437 1.20591,-1.23071 1.80709,-2.91733 1.80709,-5.05985l0 -0.892915 -1.74803 0zm11.4272 13.9276l-8.92206 -0.0106299 -0.231496 -4.7504c-1.24488,1.82481 -2.73189,3.13465 -4.46221,3.92835 -1.72796,0.793702 -3.77953,1.18937 -6.15001,1.18937 -3.07205,0 -5.50158,-0.882285 -7.28977,-2.64804 -1.78819,-1.76575 -2.68229,-4.11733 -2.68229,-7.05355 0,-3.45119 1.31221,-5.98111 3.93662,-7.58741 2.62323,-1.60748 6.6567,-2.41063 12.0992,-2.41063l4.02284 0 0 -0.41693c0,-1.66654 -0.621261,-2.94685 -1.86614,-3.83977 -1.24488,-0.891734 -3.07205,-1.33819 -5.48032,-1.33819 -2.41063,0 -5.36457,0.832678 -8.863,2.5004l-0.174803 -6.90355c1.74922,-0.754725 3.59528,-1.3004 5.5382,-1.63701 1.9441,-0.337796 4.04292,-0.505513 6.29765,-0.505513 4.97599,0 8.59135,1.24961 10.8461,3.74882 2.25355,2.5004 3.3815,6.40749 3.3815,11.7248l0 16.0099zm-5.53938 -45.4111l-9.27167 10.7717 -4.37245 0 5.4815 -10.7717 8.16261 0zm44.2583 45.4111l-10.2047 0 0 -15.7134c0,-4.75985 -1.69016,-7.14096 -5.07402,-7.14096 -1.70906,0 -3.11811,0.703938 -4.22717,2.11181 -1.10669,1.40906 -1.66063,3.42284 -1.66063,6.04135l0 14.7012 -10.2626 0 0 -30.5918 9.32954 0 0 5.4756c1.16575,-2.02441 2.67166,-3.58111 4.5189,-4.67245 1.84607,-1.09016 3.95552,-1.63701 6.32599,-1.63701 3.65434,0 6.44292,1.14213 8.36812,3.42284 1.92402,2.28189 2.88662,5.6445 2.88662,10.089l0 17.9138zm17.6091 -30.5918l0 30.5918 -10.2638 0 0 -30.5918 10.2638 0zm0 -14.0457l0 8.51104 -10.2638 0 0 -8.51104 10.2638 0zm31.0796 22.4965c-2.02087,-1.11024 -4.00394,-1.66536 -5.94804,-1.66536 -2.56654,0 -4.59686,0.764174 -6.09332,2.29134 -1.49646,1.52717 -2.2441,3.60119 -2.2441,6.21969 0,2.53819 0.785434,4.5815 2.35985,6.12875 1.57441,1.54843 3.72284,2.32087 6.4441,2.32087 2.21575,0 4.29568,-0.594095 6.23859,-1.78465l0.233859 8.03387c-2.64331,0.953151 -5.81103,1.42914 -9.50553,1.42914 -2.44843,0 -4.67363,-0.387402 -6.6756,-1.15984 -2.00197,-0.774804 -3.72166,-1.86496 -5.16024,-3.27402 -1.4374,-1.40906 -2.55473,-3.10512 -3.35434,-5.0882 -0.796064,-1.98307 -1.1941,-4.16694 -1.1941,-6.54686 0,-2.49922 0.388583,-4.74213 1.16693,-6.72639 0.777166,-1.98307 1.90276,-3.67914 3.3815,-5.0882 1.47756,-1.40788 3.28465,-2.48977 5.42245,-3.24331 2.13898,-0.753544 4.54843,-1.1315 7.23072,-1.1315 2.56536,0 5.36457,0.536221 8.39765,1.60748l-0.700395 7.67718zm22.624 -1.96418c-1.90512,0 -3.4689,0.785434 -4.69489,2.35158 -1.22362,1.56733 -1.83425,3.7004 -1.83425,6.39804 0,2.69764 0.621261,4.82009 1.86496,6.36733 1.24252,1.54843 2.79922,2.32205 4.66418,2.32205 1.94292,0 3.51733,-0.764174 4.72324,-2.29134 1.20591,-1.52835 1.80709,-3.66024 1.80709,-6.39804 0,-2.73662 -0.601182,-4.88032 -1.80709,-6.42757 -1.20591,-1.54725 -2.78032,-2.32205 -4.72324,-2.32205zm0 -7.32048c2.72126,0 5.15079,0.367323 7.28741,1.10197 2.13898,0.733466 3.94725,1.79528 5.42363,3.18308 1.47756,1.39016 2.60552,3.08504 3.38386,5.08938 0.775985,2.00315 1.16457,4.25552 1.16457,6.75592 0,2.49922 -0.388583,4.75158 -1.16457,6.75473 -0.778348,2.00315 -1.9063,3.68977 -3.38386,5.05867 -1.47638,1.3689 -3.28465,2.42008 -5.42363,3.15473 -2.13662,0.733466 -4.56615,1.10079 -7.28741,1.10079 -5.44253,0 -9.67088,-1.40906 -12.6827,-4.22599 -3.013,-2.81693 -4.51772,-6.76418 -4.51772,-11.8429 0,-2.5004 0.387402,-4.75276 1.16457,-6.75592 0.778348,-2.00433 1.90512,-3.69922 3.38386,-5.08938 1.4752,-1.3878 3.27284,-2.44961 5.39292,-3.18308 2.1189,-0.734647 4.5378,-1.10197 7.25907,-1.10197z"/>
  </g>
 </g>
</svg>
